<svg xmlns="http://www.w3.org/2000/svg" viewBox="0 0 80 80" x="0px" y="0px" fill="#00007c"><g><path d="M58.271,40.949a.262.262,0,0,0,.061.008.25.25,0,0,0,.176-.427A1.491,1.491,0,0,1,58.174,40a16.547,16.547,0,0,0-.708-1.545.25.25,0,0,0-.473.1c-.014.228-.028.45-.028.679a2.1,2.1,0,0,1-.02.227,1.08,1.08,0,0,0,.151.9A2.637,2.637,0,0,0,58.271,40.949Z"/><path d="M63.741,37.305c-.05.212-.112.482-.192.774a.25.25,0,0,0,.074.251.246.246,0,0,0,.258.047.621.621,0,0,0,.088-.043,3.326,3.326,0,0,0,1.069-.6c.086-.064.174-.13.272-.2a1.253,1.253,0,0,0,.476-1.018,2.22,2.22,0,0,1,.077-.446c.079-.234.167-.463.255-.692s.18-.47.261-.711l0-.012,0,0a.259.259,0,0,0,.026-.131.569.569,0,0,1,.023-.211c.083-.254.145-.513.208-.773s.119-.493.2-.734a1.941,1.941,0,0,0-.372-1.357c-.064-.119-.123-.226-.158-.31C66,30.4,65.768,29.669,65.52,28.9l-.182-.555a.25.25,0,0,0-.25-.239,9.468,9.468,0,0,1-3.906-.726c-1.011-.443-2-.8-2.963-1.148l-.507-.184a.25.25,0,0,0-.313.13,7.294,7.294,0,0,0-.483,2.734,11.355,11.355,0,0,1-.149,1.589,8.074,8.074,0,0,0,.482,5.127c.072.173.151.4.241.646.506,1.409,1.351,3.766,3.04,3.766s1.991-1.356,2.278-2.667c.045-.206.091-.414.143-.622a.394.394,0,0,1,.511-.292.44.44,0,0,1,.351.546C63.793,37.079,63.769,37.183,63.741,37.305Zm-1-1.9a2.37,2.37,0,0,1-2.1,1.457h-.024a3.884,3.884,0,0,1-2.79-2.112.868.868,0,0,1,.435-1.046,1.778,1.778,0,0,1,.919-.173c.215,0,.432.012.624.023.151.009.29.017.407.018a2.932,2.932,0,0,1,1.87.594A1.31,1.31,0,0,1,62.74,35.4Z"/><path d="M60.222,34.467c-.082,0-.183-.009-.3-.016a4.876,4.876,0,0,0-.974,0,.249.249,0,0,0-.215.237c-.024.563-.006.836.17.971a2.66,2.66,0,0,0,1.339.357h.018A.269.269,0,0,0,60.349,36a.419.419,0,0,1,.252-.02c.474.11.937-.4,1.116-.625a.251.251,0,0,0,.012-.3A1.884,1.884,0,0,0,60.222,34.467Z"/><path d="M50.147,21.792a.24.24,0,0,0-.074-.03,5.54,5.54,0,0,1-.856-.265.473.473,0,0,1-.228-.2.252.252,0,0,0-.138-.108c-.549-.175-3.34-.993-4.342.074a1.792,1.792,0,0,0-.113,1.966,14.9,14.9,0,0,1,.54,1.843,8.845,8.845,0,0,0,1.294,3.284h0a21.607,21.607,0,0,0,1.893,2.094c.463.47.942.956,1.384,1.47,1.038,1.212,4.5,3.409,6.475,4.609a.244.244,0,0,0,.13.037.251.251,0,0,0,.229-.351,8.441,8.441,0,0,1-.429-1.141,9.806,9.806,0,0,1-.254-2.9c0-.214.006-.43.006-.65a16.2,16.2,0,0,1,.895-5.634.26.26,0,0,0,0-.194.256.256,0,0,0-.14-.136,17.216,17.216,0,0,1-3.429-1.727c-.39-.26-.777-.554-1.187-.866A19.926,19.926,0,0,0,50.147,21.792Z"/><path d="M79.929,29.159c-.2-.034-.406-.063-.614-.093a6.328,6.328,0,0,1-2.088-.537c-2.626-1.412-5.552-1.067-8.38-.731-.766.09-1.559.184-2.332.241a.249.249,0,0,0-.219.328c.379,1.135.766,2.193,1.185,3.233l.091.22a1.477,1.477,0,0,1,.138,1.218c-.055.2-.1.4-.155.6-.076.3-.151.608-.223.856a.606.606,0,0,0-.035.053.244.244,0,0,0-.026.157.378.378,0,0,1-.025.19c-.059.177-.121.348-.183.518a5.863,5.863,0,0,0-.43,1.718.249.249,0,0,0,.064.182.258.258,0,0,0,.176.082c.184.007.366.01.545.01,3.488,0,5.988-1.38,9.327-3.448.452-.281,4.407-2.78,4.143-4.106C80.816,29.483,80.493,29.252,79.929,29.159Z"/><path d="M52.9,22.27a.249.249,0,0,0,.1.289l.136.086a19.037,19.037,0,0,0,5.777,2.808,21.142,21.142,0,0,1,2.468.784,12.349,12.349,0,0,0,4.434.989h.156c1.19,0,2.386-.116,3.545-.228s2.347-.227,3.526-.227c.107,0,.211.006.313.012l.165.009a.25.25,0,0,0,.066-.494,39.652,39.652,0,0,0-3.955-.631l-.293-.036c-.8-.1-1.592-.217-2.379-.337a39.759,39.759,0,0,0-4.974-.538,9.963,9.963,0,0,1-5.174-1.746,8.291,8.291,0,0,0-3.66-.913A.246.246,0,0,0,52.9,22.27Z"/><path d="M67.028,48.478a.267.267,0,0,0,.092.017.249.249,0,0,0,.21-.114.95.95,0,0,1,.712-.424.25.25,0,0,0,.21-.176,4.158,4.158,0,0,0,.125-.516,4.248,4.248,0,0,0,.09-.81.24.24,0,0,0,.123-.269c-.048-.239-.305-.212-.46-.2a.818.818,0,0,0-.186.026c-.567.219-.765.9-.908,1.385-.039.121-.084.244-.13.369s-.088.239-.128.362a.284.284,0,0,0,.052.215A.331.331,0,0,0,67.028,48.478Z"/><path d="M9.752,100.114a.283.283,0,0,0,.157.28c.173.078.494.177.938.314,1.287.395,3.965,1.217,4.2,2.192a.816.816,0,0,1-.33.765,2.5,2.5,0,0,1-.847.456,4.6,4.6,0,0,0-.6.266.252.252,0,0,0-.126.184.247.247,0,0,0,.071.211,1.721,1.721,0,0,0,1.238.548,1.863,1.863,0,0,0,.444-.056,16.384,16.384,0,0,0,2.268-.327c2.006-.434,6.182-1.338,7.891-3.975a.25.25,0,0,0-.264-.38,4.557,4.557,0,0,0-1.288.45,10.837,10.837,0,0,1-2.208,1,7.326,7.326,0,0,1-3.919.345.339.339,0,0,1-.281-.221.525.525,0,0,1,.117-.491.427.427,0,0,1,.436-.138,6.809,6.809,0,0,0,4.338-.821c.22-.1.443-.194.672-.289.2-.085.408-.194.613-.3a3.824,3.824,0,0,1,.994-.421c.178-.035.356-.059.532-.082a6.763,6.763,0,0,0,.758-.131.349.349,0,0,0,.194-.227.884.884,0,0,0,.033-.147c.071-.4.134-.8.19-1.21a.25.25,0,0,0-.12-.249.246.246,0,0,0-.277.015C23.6,99.153,21.2,99.514,18.658,99.9c-.937.141-1.906.287-2.843.493a.427.427,0,0,1-.431-.127.533.533,0,0,1-.123-.494.352.352,0,0,1,.285-.238c.883-.194,1.826-.328,2.737-.457,2.868-.407,5.834-.827,7.882-3.168a.255.255,0,0,0,.061-.138c.116-1.1.21-2.277.287-3.6a.25.25,0,0,0-.457-.155l-.2.3c-.3.441-.595.881-.906,1.294A2.832,2.832,0,0,1,22.4,94.652a.411.411,0,0,1-.428-.445.415.415,0,0,1,.432-.451H22.5a1.957,1.957,0,0,0,1.576-.5A11.974,11.974,0,0,0,25,92.08c.166-.234.325-.476.485-.718.117-.178.234-.357.356-.534a.25.25,0,0,0,0-.268.268.268,0,0,0-.247-.121,3.366,3.366,0,0,1-.373.025l-.281,0a6.411,6.411,0,0,1-.8-.021c-.1-.015-.216-.023-.334-.03a.239.239,0,0,0-.191.072.25.25,0,0,0-.074.19.328.328,0,0,1-.052.2.3.3,0,0,0-.029.063.455.455,0,0,1-.276.3,11.632,11.632,0,0,1-2.015.576c-.191.042-.38.085-.571.13l-.174.039c-1.432.321-2.765.711-2.815,1.384-.037.49.586.79,1.058.973,1.037.4,1.084.99.806,2C19.132,97.6,17.11,98.21,16.5,98.367a38.314,38.314,0,0,1-3.831.692C12.641,99.062,9.815,99.686,9.752,100.114Z"/><path d="M63.7,22.382c-.332-.07-.764-.2-1.265-.343-1.736-.51-4.117-1.208-5.5-.448a.25.25,0,0,0-.007.435l.068.04c.089.052.175.1.262.161a10.425,10.425,0,0,0,5.766,1.541,22.417,22.417,0,0,1,2.829.292h0c.935.171,1.911.384,2.855.591l.16.035a.233.233,0,0,0,.053.006.253.253,0,0,0,.2-.1.249.249,0,0,0,.025-.266c-.733-1.454-2.473-1.618-4.008-1.763A13.232,13.232,0,0,1,63.7,22.382Z"/><path d="M68.06,16.084c-.069-.732-.13-1.48-.191-2.237a54.418,54.418,0,0,0-1.029-7.89.25.25,0,0,0-.185-.186.246.246,0,0,0-.249.08,26.229,26.229,0,0,0-2.776,4.675c-.24.477-.456.9-.639,1.239a47.172,47.172,0,0,1-2.778,4.326c-.88,1.267-1.791,2.577-2.567,3.942a.251.251,0,0,0,.007.258.247.247,0,0,0,.232.114,13.09,13.09,0,0,1,4.154.648,16.278,16.278,0,0,0,2.759.567,10.162,10.162,0,0,1,3.609.729.246.246,0,0,0,.109.026.251.251,0,0,0,.25-.267c-.076-1.149-.231-2.28-.381-3.374C68.267,17.876,68.145,16.989,68.06,16.084Z"/><path d="M53.286,68.362a14.078,14.078,0,0,1,4.737.538,5.518,5.518,0,0,1,1.792,1.132,10.218,10.218,0,0,0,1.107.833,16.625,16.625,0,0,1,2.025,1.576c1.593,1.37,3.246,2.786,5.366,2.594a.248.248,0,0,0,.189-.086.25.25,0,0,0,.059-.2L68.54,74.6a.251.251,0,0,0-.2-.211.233.233,0,0,0-.085,0c-2.318-.581-3.935-2.09-5.648-3.687-1.786-1.665-3.632-3.387-6.317-3.911a.337.337,0,0,1-.282-.214.525.525,0,0,1,.116-.49.436.436,0,0,1,.441-.145,12.856,12.856,0,0,1,6.013,3.274c.4.376.775.752,1.135,1.116a15.778,15.778,0,0,0,2.43,2.141.249.249,0,0,0,.341-.353,7.353,7.353,0,0,1-.9-2.154c-.135-.444-.274-.9-.453-1.343a14.227,14.227,0,0,0-.874-1.7.248.248,0,0,0-.105-.1.585.585,0,0,1-.105-.061,4.234,4.234,0,0,0-1.964-.892,7.932,7.932,0,0,1-.95-.291c-.161-.065-.327-.136-.5-.208a7.307,7.307,0,0,0-2.094-.654.5.5,0,0,1-.438-.565.332.332,0,0,1,.393-.333,7.672,7.672,0,0,1,2.079.594c.375.147.762.3,1.157.416l.429.126c.182.054.367.107.554.166a.25.25,0,0,0,.3-.357l-.076-.138a3.892,3.892,0,0,1-.183-.353c-.088-.188-.175-.39-.263-.6a4.384,4.384,0,0,0-1.736-2.4.329.329,0,0,1-.2-.34.248.248,0,0,0-.087-.2,2.164,2.164,0,0,1-.821-1.381.25.25,0,0,0-.427-.147,4.122,4.122,0,0,1-1.935,1.115.248.248,0,0,0-.206.206,4.617,4.617,0,0,1-.173.716.25.25,0,0,0,.232.329,5.762,5.762,0,0,1,1.778.257.5.5,0,0,1,.286.651.337.337,0,0,1-.467.225,9.524,9.524,0,0,0-2.387-.251.217.217,0,0,1-.1-.025.25.25,0,0,0-.3.044c-.241.245-.521.481-.791.709-.159.134-.317.268-.471.406a1.743,1.743,0,0,1-.686.327.25.25,0,0,0-.146.111,1.563,1.563,0,0,1-.311.378c-.577.488-1.2.945-1.794,1.388-.282.209-.563.417-.846.632a.855.855,0,0,1-.583.1l-.07-.006a.246.246,0,0,0-.278.112,1.38,1.38,0,0,1-.2.239c-.3.3-.579.614-.862.932a.25.25,0,0,0,.171.415c.209.014.418.027.64.062.085.011.509.084.509.45a.515.515,0,0,1-.181.353.338.338,0,0,1-.253.1,14.68,14.68,0,0,0-1.476-.086.246.246,0,0,0-.208.1,1.972,1.972,0,0,1-.487.5l-.064.043c-.062.042-.128.086-.216.142a2.31,2.31,0,0,0-.386.35.876.876,0,0,0-.2.449.9.9,0,0,1-.038.156c-.005.01-.022.05-.026.06a.251.251,0,0,0,.047.245.248.248,0,0,0,.235.083c.3-.055.591-.125.884-.2a9.993,9.993,0,0,1,1.458-.275l.234-.022a2.835,2.835,0,0,1,1.614.139.369.369,0,0,1,.216.328.528.528,0,0,1-.249.441.407.407,0,0,1-.425-.008,4.135,4.135,0,0,0-2.235.151l-.475.112a10.346,10.346,0,0,1-1.871.329.513.513,0,0,1-.2-.03.253.253,0,0,0-.255.061,2.022,2.022,0,0,0-.214.267c-.028.048-.059.094-.089.139l-.059.09a.248.248,0,0,0,0,.262.252.252,0,0,0,.232.122c.772-.053,1.548-.126,2.326-.2A35.761,35.761,0,0,1,53.8,72.71a13.95,13.95,0,0,1,5.112,1.534c.732.332,1.49.675,2.352.992a20.869,20.869,0,0,0,4.8,1.006l.431.054h.017c.121,0,.249-.155.278-.273a.249.249,0,0,0-.177-.3,11,11,0,0,1-4.056-2.42,12.371,12.371,0,0,0-1.435-1,8.564,8.564,0,0,1-1.773-1.334c-1.542-1.736-3.664-1.723-5.719-1.712l-.347,0a.427.427,0,0,1-.418-.439A.421.421,0,0,1,53.286,68.362Z"/><path d="M78.969,87.479a.252.252,0,0,0,.107-.212c-.025-.982-.033-1.968-.04-2.953a62,62,0,0,0-.367-7.586.25.25,0,0,0-.5.032c-.006,2.542-.148,5.717-1.2,7.728a.444.444,0,0,1-.368.2l-.168-.019a.613.613,0,0,1-.357-.133.25.25,0,0,0-.425.229,15.809,15.809,0,0,1-.085,8.033.24.24,0,0,0-.009.119.453.453,0,0,1-.044.311c-.609,1.01-.457,2.857.453,5.489a6.454,6.454,0,0,0,2.785,3.316.256.256,0,0,0,.138.041.247.247,0,0,0,.169-.066.251.251,0,0,0,.051-.3,15.888,15.888,0,0,1-1.989-5.643,15.13,15.13,0,0,1,1.7-8.425A.355.355,0,0,1,78.969,87.479Z"/><path d="M72.014,71a.442.442,0,0,1,.252.385h0a24.392,24.392,0,0,0,2.126,8.95.249.249,0,0,0,.179.136.455.455,0,0,1,.146.049A2.568,2.568,0,0,1,75.9,81.573a2.321,2.321,0,0,1,.15.449.252.252,0,0,0,.243.189h.014A.25.25,0,0,0,76.54,82l.136-.962a39.076,39.076,0,0,0,.5-5.066c0-.486.024-.975.044-1.466a14.491,14.491,0,0,0-.412-5.14q-.168-.517-.341-1.033c-.313-.944-.637-1.919-.9-2.885-.337-1.264-.788-2.485-1.224-3.665-.275-.742-.558-1.51-.81-2.279a.347.347,0,0,1,.124-.436.247.247,0,0,0,.111-.2,2.261,2.261,0,0,1,.187-.933,4.376,4.376,0,0,0-.074-3.335c-.1-.346-.212-.7-.285-1.064-.156-.757-.352-1.513-.542-2.244a28.1,28.1,0,0,1-.74-3.434.24.24,0,0,0-.056-.127,13.706,13.706,0,0,1-1.012-1.456,6.455,6.455,0,0,0-2.7-2.758.281.281,0,0,0-.086-.023c-2.279-.172-4.378-.247-6.241-.231a2.26,2.26,0,0,1-2.12-.961.251.251,0,0,0-.312-.053,6.969,6.969,0,0,1-2.744.622c-.342.032-.675.064-.986.109a2.334,2.334,0,0,0-1.289.775,3.887,3.887,0,0,1-.551.471,1.54,1.54,0,0,1-.565.182,2.807,2.807,0,0,0-.475.121.251.251,0,0,0-.135.346.664.664,0,0,0,.542.415,1.287,1.287,0,0,1,.288.087c.153.066.237.362.3.6a3.129,3.129,0,0,0,.1.312h0a.248.248,0,0,0,.327.135.251.251,0,0,0,.148-.289,6.855,6.855,0,0,1,.68-1.387c.176-.281.416-.665.739-.766a.713.713,0,0,1,.98.448.251.251,0,0,0,.456-.009c.383-.9,1.515-.622,1.853-.516.926.285.905,1.531.766,2.147-.206.871-.468,1.773-.825,2.84a.251.251,0,0,0,.12.3,1.627,1.627,0,0,1,.819,1.333c.027.206.06.421.095.641A13.04,13.04,0,0,1,60.6,52.6a.248.248,0,0,0,.284.237c.031,0,.062-.01.149-.028a.25.25,0,0,0,.208-.3c-.158-.748-.174-1.235.208-1.511a2.35,2.35,0,0,1,1.56-.634.25.25,0,0,0,.278-.339l-.036-.093c-.029-.074-.057-.145-.083-.2a.762.762,0,0,1-.019-.622.989.989,0,0,1,.636-.462,1.979,1.979,0,0,1,1.607.12.249.249,0,0,0,.23.006.252.252,0,0,0,.137-.185,6.175,6.175,0,0,1,.243-.9l.164-.528a4.217,4.217,0,0,1,.37-.971,1.959,1.959,0,0,1,1.652-1.1h.018a1.04,1.04,0,0,1,.882.351c.351.452.344,1.379-.02,2.755a.25.25,0,0,0,.065.241c.066.066.139.132.212.2a4.368,4.368,0,0,1,1.2,3.044.423.423,0,0,1-.029.23.245.245,0,0,0,0,.173c.5,1.367-.211,2.019-1.617,2.682a.251.251,0,0,0-.138.279,4.093,4.093,0,0,1-.372,2.625.25.25,0,0,0,.08.311.378.378,0,0,1,.091.087,11.232,11.232,0,0,0,.806.867c.142.143.283.284.42.43a.245.245,0,0,0,.261.067.251.251,0,0,0,.17-.209,7.263,7.263,0,0,1,1.43-3.292.249.249,0,0,0,.035-.212.253.253,0,0,0-.142-.161.818.818,0,0,1-.466-.69,3,3,0,0,1,.261-1.528l.036-.1a.476.476,0,0,1,.627-.28.359.359,0,0,1,.248.484l-.082.219a3.576,3.576,0,0,0-.222.726.6.6,0,0,0,0,.179.25.25,0,0,0,.157.233.369.369,0,0,1,.1.069.248.248,0,0,0,.267.038.556.556,0,0,1,.633.152.3.3,0,0,1-.015.4A15.349,15.349,0,0,0,71.6,57.785a3.563,3.563,0,0,0-.489,1.405.247.247,0,0,0,.09.206.244.244,0,0,0,.219.051.753.753,0,0,0,.076-.024.511.511,0,0,1,.546.262.386.386,0,0,1-.092.482l-.069.07a1.13,1.13,0,0,0-.434.974.51.51,0,0,1-.023.11.25.25,0,0,0,.067.231,2.055,2.055,0,0,1,.158.177c.5.615,1.006,1.229,1.516,1.844a.279.279,0,0,0,.054.049.332.332,0,0,1,.1.1c1.863,2.533,1.9,5.3,1.932,8.229a25.857,25.857,0,0,0,.364,4.811.436.436,0,0,1-.138.435.525.525,0,0,1-.492.117.339.339,0,0,1-.221-.282,24.209,24.209,0,0,1-.329-4.612c-.02-2.7-.041-5.5-1.719-7.991a.234.234,0,0,0-.036-.058l-.817-.984a.234.234,0,0,0-.275-.047.287.287,0,0,0-.163.264.466.466,0,0,1-.166.458.53.53,0,0,1-.486.108.32.32,0,0,1-.2-.275,16.353,16.353,0,0,0-.522-2.228l-.155-.482a4.155,4.155,0,0,0-.319-.618.248.248,0,0,0-.291-.107.251.251,0,0,0-.171.259,3.062,3.062,0,0,1-.437,2.15.31.31,0,0,1-.48.057.53.53,0,0,1-.118-.74,6.362,6.362,0,0,0-.164-3.281.254.254,0,0,0-.183-.062.248.248,0,0,0-.172.087,6.208,6.208,0,0,1-1.63,1.362.389.389,0,0,1-.416.011.536.536,0,0,1-.256-.444.372.372,0,0,1,.214-.332,5.65,5.65,0,0,0,1.86-1.771.25.25,0,0,0-.012-.289.253.253,0,0,0-.277-.084,2.132,2.132,0,0,0-.413.179,14.25,14.25,0,0,1-2.578,1.008c-.211.067-.42.134-.625.2a.354.354,0,0,1-.37-.056.529.529,0,0,1-.147-.486.42.42,0,0,1,.3-.324c.469-.156.927-.348,1.369-.534.416-.175.845-.355,1.271-.5a2.707,2.707,0,0,0,1.653-1.123.25.25,0,0,0-.272-.376,11.812,11.812,0,0,1-1.768.287,7.42,7.42,0,0,0-1.843.478,8.482,8.482,0,0,1-1.436.417A.424.424,0,0,1,61.9,56.5a.251.251,0,0,0-.284.029,1.674,1.674,0,0,0-.621.893c-.036.12-.065.249-.095.379a3.464,3.464,0,0,1-.161.566,1.345,1.345,0,0,0,.59,1.905.43.43,0,0,1,.2.31.245.245,0,0,0,.108.169,5.073,5.073,0,0,1,1.746,2.531,12.934,12.934,0,0,0,.832,1.706l.073.119a17.276,17.276,0,0,1,1.718,3.32c.081.242.157.544.24.868l.069.274a.251.251,0,0,0,.493-.073,9.779,9.779,0,0,1,.379-3.3.435.435,0,0,1,.577-.288.4.4,0,0,1,.292.515,8.992,8.992,0,0,0-.3,3.995c.013.064.026.174.039.3a.261.261,0,0,0,.256.224.25.25,0,0,0,.242-.239,5.045,5.045,0,0,1,.686-2.358.406.406,0,0,1,.591-.144.424.424,0,0,1,.182.6,4.666,4.666,0,0,0-.47,3.146c.025.263.051.538.068.818a1.952,1.952,0,0,0,.008.208.25.25,0,0,0,.241.223.271.271,0,0,0,.254-.206c.02-.116.047-.238.076-.365a.356.356,0,0,1,.454-.292.48.48,0,0,1,.4.564c-.041.2-.1.428-.164.662a3.482,3.482,0,0,0,.036,2.844,2.688,2.688,0,0,0,1.373,1.258.246.246,0,0,0,.244-.063.253.253,0,0,0,.065-.245,29.791,29.791,0,0,1-.976-6,.343.343,0,0,1,.139-.333A.528.528,0,0,1,72.014,71Z"/><path d="M81.439,63.453c-.22-1.43-.526-2.857-.821-4.237-.314-1.465-.639-2.979-.86-4.494a28.3,28.3,0,0,0-.874-3.662,26.016,26.016,0,0,1-.885-3.8c-.214-1.653-1.574-2.55-2.889-3.418a9.359,9.359,0,0,1-1.964-1.556,16.472,16.472,0,0,0-2.582-2.316,23.462,23.462,0,0,1-1.806-1.5l-.172.181.118-.271a.25.25,0,0,0-.226-.111,13.622,13.622,0,0,1-2.17-.014.51.51,0,0,1-.162-.045.246.246,0,0,0-.235.025c-.141.1-.274.2-.407.313a2.426,2.426,0,0,1-.786.5,3.5,3.5,0,0,0-.9.449,3.184,3.184,0,0,1-.7.368.709.709,0,0,0-.1.012.252.252,0,0,0-.157.123,2.9,2.9,0,0,1-.4.585.25.25,0,0,0-.041.276.243.243,0,0,0,.241.143,3.358,3.358,0,0,0,1.731-.5,5.814,5.814,0,0,1,2.459-.87l.171-.034a.444.444,0,0,1,.441.146.53.53,0,0,1,.117.492.33.33,0,0,1-.279.212c-.171.035-.341.061-.509.088a3.842,3.842,0,0,0-1.664.538,3.646,3.646,0,0,1-1.075.572,8.107,8.107,0,0,1-2.119.228.25.25,0,0,0,0,.5c.332.005.659.036.987.067.206.019.412.038.619.052.809.055,1.629.051,2.422.048.83-.005,1.688-.008,2.513.055a.607.607,0,0,1,.213.063c.086.045.194.025.3.07,1.8.805,2.8,2.49,3.8,4.165a4.491,4.491,0,0,0,.8.928,3.574,3.574,0,0,1,.766.923,12.568,12.568,0,0,0,.734,1.2,9.485,9.485,0,0,1,.831,1.411.461.461,0,0,1-.045.48.544.544,0,0,1-.447.231.311.311,0,0,1-.253-.214,10.713,10.713,0,0,0-1.057-1.786.25.25,0,0,0-.447.2c.179.734.382,1.465.586,2.193.236.848.481,1.725.677,2.586.029.125.067.265.109.415a3.359,3.359,0,0,1,.18,1.769,5.6,5.6,0,0,0-.5,2.471.376.376,0,0,1-.033.188.255.255,0,0,0-.009.188c.3.872.636,1.751.971,2.636A37.177,37.177,0,0,1,78,70.7a.211.211,0,0,0,.017.063C79.86,75.2,79.93,80.344,80,85.319c.011.852.022,1.693.043,2.519A27.99,27.99,0,0,0,82.6,98.982a3.246,3.246,0,0,1,.156,1.085c.042,1,.1,2.357,2.024,2.38,1.218.017,2.449.128,3.639.235l.625.051.093-.23h0l-.031.251a.561.561,0,0,0,.109.006.3.3,0,0,1,.066,0,27.724,27.724,0,0,0,5.422.423c.456,0,.91.011,1.361.022.5.011,1.023.037,1.551.063.752.037,1.514.075,2.271.075a12.741,12.741,0,0,0,2.942-.291c.554-.129,4.633-1.13,6.993-1.811a.251.251,0,0,0-.048-.49,25.344,25.344,0,0,0-4.464.121c-.712.061-1.449.124-2.194.158-1.954.094-3.948.075-5.876.057-.8-.008-1.595-.015-2.391-.015-.487,0-1.077.052-1.7.108-1.522.135-3.416.3-4.466-.286a17.035,17.035,0,0,1-4.554-3.547.479.479,0,0,1,.07-.69.359.359,0,0,1,.543.032c2.169,2.509,4.464,3.486,8.189,3.486h1.288c1.749,0,3.5,0,5.257.014,1.508.018,2.984-.109,4.407-.23a29.874,29.874,0,0,1,6.2-.093.24.24,0,0,0,.27-.176.25.25,0,0,0-.127-.3l-.166-.085a5.806,5.806,0,0,0-2.07-.756q-.941-.126-1.878-.273a19.237,19.237,0,0,0-4.293-.176c-4.59.284-5.834-.349-6.164-.753-.216-.265-.414-.555-.606-.834a5.017,5.017,0,0,0-1.873-1.885c-.29-.141-.607-.274-.932-.411a7.131,7.131,0,0,1-2.3-1.307c-1.277-1.278-3.506-1.642-5.473-1.963-.335-.055-.665-.109-.984-.166a.255.255,0,0,0-.236.079.24.24,0,0,0-.048.239c0,.014.012.062.016.076a.65.65,0,0,0,.1.132,6.384,6.384,0,0,0,1.921.961,7.632,7.632,0,0,1,1.341.581c.17.1.212.289.267.592a1.156,1.156,0,0,0,.542.944,5.917,5.917,0,0,0,1.875.479,4.873,4.873,0,0,1,1.8.483,5.1,5.1,0,0,1,1.188,1.078,5.067,5.067,0,0,0,1.566,1.319.336.336,0,0,1,.216.28.524.524,0,0,1-.235.442.449.449,0,0,1-.47.028A5.949,5.949,0,0,1,91.8,97.321a4.36,4.36,0,0,0-2.424-1.459,5.143,5.143,0,0,1-2.95-1.08,1.207,1.207,0,0,1-.4-.734c-.022-.577-.444-.654-.751-.711a2.011,2.011,0,0,1-.355-.087,6.309,6.309,0,0,1-.9-.417.253.253,0,0,0-.275.023.248.248,0,0,0-.086.262c.129.478.284.955.461,1.42a.335.335,0,0,1-.213.469.5.5,0,0,1-.667-.271c-1.521-3.957-1.494-9.306-1.472-13.6l0-.328c.032-5.438.066-11.062-.456-16.908a.291.291,0,0,1,.066-.241A.249.249,0,0,0,81.439,63.453Zm-2.9.253a13.511,13.511,0,0,0-.743-2.129,13,13,0,0,1-.722-2.064l-.022-.1a32.47,32.47,0,0,0-.963-3.648.361.361,0,0,1,.246-.488.475.475,0,0,1,.628.281,18.828,18.828,0,0,1,.558,2.135,19.893,19.893,0,0,0,.545,2.107c.17.5.37.986.563,1.451a14.085,14.085,0,0,1,.77,2.19.452.452,0,0,1-.364.554A.387.387,0,0,1,78.539,63.706Zm.96,3.432a.385.385,0,0,1-.492-.289c-.034-.149-.078-.3-.123-.439-.039-.127-.078-.252-.108-.381a.415.415,0,0,1,.116-.422.529.529,0,0,1,.49-.125.366.366,0,0,1,.249.3c.033.129.074.257.114.384s.089.279.122.42A.457.457,0,0,1,79.5,67.138Z"/><path d="M44,58.639h0a.466.466,0,0,1-.62-.178,2.762,2.762,0,0,1-.408-.937.25.25,0,0,0-.352-.164,3.65,3.65,0,0,1-1.913.367.244.244,0,0,0-.27.209,3.991,3.991,0,0,0,.289,2.231,2.4,2.4,0,0,0,.634.831,2.484,2.484,0,0,1,.431.489.322.322,0,0,0,.015.039.249.249,0,0,0,.153.131.255.255,0,0,0,.072.01.242.242,0,0,0,.128-.035c.427-.253.884-.472,1.326-.683A11.747,11.747,0,0,0,45.527,59.8a12.736,12.736,0,0,1,3.4-1.545c2.215-.774,4.506-1.575,5.294-3.677a.47.47,0,0,1,.51-.3.254.254,0,0,0,.2-.078.249.249,0,0,0,.067-.2,1.875,1.875,0,0,1,.147-1.27.25.25,0,0,0,.017-.275c-.106-.183-.2-.383-.291-.591s-.187-.409-.3-.619a3.59,3.59,0,0,0-1.7-1.39,4.522,4.522,0,0,1-1.2-.784,2.4,2.4,0,0,1-.3-1.561l0-.149a.251.251,0,0,0-.432-.175A3.786,3.786,0,0,1,49.653,48.2a.247.247,0,0,0-.171.249,4.959,4.959,0,0,0,2.271,4.255.444.444,0,0,1,.2.419.531.531,0,0,1-.27.424.337.337,0,0,1-.352-.052,6.151,6.151,0,0,1-2.173-2.251,5.148,5.148,0,0,1-.426-1.278.249.249,0,0,0-.234-.2.231.231,0,0,0-.25.179,4.8,4.8,0,0,1-.584,1.351,3.879,3.879,0,0,1-.231.315.255.255,0,0,0-.055.167,3.109,3.109,0,0,0,.66,1.987c.041.048.085.107.132.17a1.523,1.523,0,0,0,.745.651c.22.055.439.09.659.124.121.019.241.038.366.061a.321.321,0,0,1,.274.2.521.521,0,0,1-.109.487.452.452,0,0,1-.453.164l-.287-.044a2.418,2.418,0,0,1-1.274-.431,5.164,5.164,0,0,1-.874-.968,3.819,3.819,0,0,1-.615-1.45.251.251,0,0,0-.139-.173.246.246,0,0,0-.221.006,5.6,5.6,0,0,1-.855.36c-.085.028-.17.2-.188.285a.249.249,0,0,0,.164.287.365.365,0,0,1,.257.384c0,.1-.011.2-.018.3a2.146,2.146,0,0,0,.166,1.247,6.953,6.953,0,0,0,.837,1.18.5.5,0,0,1-.087.714.331.331,0,0,1-.259.1.341.341,0,0,1-.254-.144,7.176,7.176,0,0,1-1.1-1.59c0-.008-.028-.079-.032-.086a.243.243,0,0,0-.279-.146.248.248,0,0,0-.188.167,3.784,3.784,0,0,1-.62.861.252.252,0,0,0-.05.27.573.573,0,0,1,.05.194,1.921,1.921,0,0,0,.382,1.1.35.35,0,0,1,.048.281A.488.488,0,0,1,44,58.639Z"/><path d="M56.547,45.61a.242.242,0,0,0-.171-.263.266.266,0,0,0-.3.123.507.507,0,0,0-.05.11l-.06.135a7.687,7.687,0,0,1-.607,1.181,1.18,1.18,0,0,1-1.5.282,1.219,1.219,0,0,1-.447-.673.962.962,0,0,0-.049-.145.249.249,0,0,0-.238-.172A.521.521,0,0,1,53,46.174a.86.86,0,0,1-.415-.386.25.25,0,0,0-.447.21,2.422,2.422,0,0,1,.109.615c0,.148,0,.286,0,.416a1.9,1.9,0,0,0,1.181,2.086c.094.051.2.1.321.162a3,3,0,0,1,1.226.862c.066.122.144.312.232.529.371.9.694,1.6,1.2,1.717a.341.341,0,0,1,.272.224.249.249,0,0,0,.162.154,10.184,10.184,0,0,0,1.421.35l.064.011a6.965,6.965,0,0,0,1.054.119h.077A.25.25,0,0,0,59.705,53a6.934,6.934,0,0,0-.08-.994c-.014-.114-.028-.224-.04-.328-.008-.089-.013-.189-.019-.294a2.1,2.1,0,0,0-.3-1.2.249.249,0,0,0-.358-.035.531.531,0,0,1-.62.019.322.322,0,0,1-.113-.415c.355-1,.657-1.954.92-2.915.017-.062.045-.146.077-.245.2-.607.473-1.438.042-1.794a.476.476,0,0,0-.5-.116c-.305.123-.356.558-.389.845-.005.041-.008.075-.012.093l-.026.115c-.241,1.065-.643,2.848-1.678,3.277a.37.37,0,0,1-.3-.043.4.4,0,0,1-.212-.251,5.357,5.357,0,0,1,.234-2.062C56.409,46.308,56.5,45.954,56.547,45.61Zm-3.412.878Z"/><path d="M60.691,56.076a.251.251,0,0,0,.17-.066c.088-.082.176-.163.272-.246a.39.39,0,0,1,.059-.034l.056-.029a.251.251,0,0,0,.105-.118.3.3,0,0,1,.045-.07.191.191,0,0,0,.059-.139,1.715,1.715,0,0,0,.014-.332c-.007-.191-.014-.383-.029-.576-.008-.109-.011-.22-.014-.332l-.006-.189a.25.25,0,0,0-.363-.213c-.33.169-.368.585-.4.952a2.348,2.348,0,0,1-.049.353l-.161.734a.249.249,0,0,0,.119.271A.245.245,0,0,0,60.691,56.076Z"/><path d="M44.3,71.817a.25.25,0,0,0,.458.11c.073-.111.151-.223.229-.32a2.417,2.417,0,0,1,.269-.243,1.828,1.828,0,0,0,.49-.53,2.274,2.274,0,0,0,.2-.54.2.2,0,0,0-.048-.215.475.475,0,0,1-.008-.414.5.5,0,0,0,.021-.154.319.319,0,0,1,0-.073c.213-.916.367-1.845.515-2.744a28.341,28.341,0,0,1,.875-4.042.416.416,0,0,1,.319-.3.539.539,0,0,1,.491.146.359.359,0,0,1,.061.375,28.837,28.837,0,0,0-.889,4.108l-.117.7a.25.25,0,0,0,.435.206c.2-.228.4-.5.618-.781a.252.252,0,0,0,.033-.06,9.444,9.444,0,0,0,.469-2.144c.023-.162.045-.322.069-.477.167-1.059.34-2.095.609-3.123a.405.405,0,0,1,.535-.291.418.418,0,0,1,.329.533,19.436,19.436,0,0,0-.425,2.442c-.058.436-.116.875-.187,1.308a.246.246,0,0,0,.066.215.249.249,0,0,0,.213.075,1.064,1.064,0,0,1,.125-.013.773.773,0,0,1,.375.073h0a.251.251,0,0,0,.339-.1.256.256,0,0,0,.03-.15,4.423,4.423,0,0,1,.7-.561l.022-.018h0c.1-.073.222-.149.346-.229a4.2,4.2,0,0,0,1.039-.833,3.863,3.863,0,0,0,.546-2.365l0-.2a.43.43,0,0,1,.479-.428.394.394,0,0,1,.417.416l-.005.242c0,.226-.008.469-.023.712a.25.25,0,0,0,.411.206c.223-.187.445-.385.663-.58l.269-.239a2.684,2.684,0,0,0,.661-1.762,6.806,6.806,0,0,1,.108-.677.354.354,0,0,1,.333-.3.513.513,0,0,1,.506.294.248.248,0,0,0,.156.144.255.255,0,0,0,.21-.028l.379-.249a1.732,1.732,0,0,0,1.02-1.477,1.178,1.178,0,0,1,.156-.456,2.073,2.073,0,0,0,.18-.455c.053-.223.094-.448.136-.673s.078-.426.128-.636c.071-.277.118-.537.163-.784l.015-.077a.248.248,0,0,0-.057-.209.26.26,0,0,0-.2-.087c-.153.006-.3,0-.442-.007l-.146-.007A10.645,10.645,0,0,1,56.18,53.5a.248.248,0,0,0-.223.037.252.252,0,0,0-.1.2c0,.009,0,.059,0,.068a4.142,4.142,0,0,0,.082.446,3.746,3.746,0,0,0,1.008,2.021.416.416,0,0,1-.017.624.41.41,0,0,1-.613.015,4.425,4.425,0,0,1-.607-.781.257.257,0,0,0-.27-.11.25.25,0,0,0-.19.221,4.455,4.455,0,0,0,.2,1.937.344.344,0,0,1-.229.475.489.489,0,0,1-.649-.277,4.262,4.262,0,0,1-.208-1.617.249.249,0,0,0-.426-.183,11.4,11.4,0,0,1-4.276,2.276c-.3.11-.6.22-.893.333a13.73,13.73,0,0,0-2.533,1.349c-.282.177-.57.359-.877.54a7.758,7.758,0,0,1-1.277.572c-1.215.457-2.363.889-2.468,3.31a4.352,4.352,0,0,1-.746,2.427.381.381,0,0,0-.043.182.428.428,0,0,1-.012.142,4.8,4.8,0,0,0-.118,1.429,4.934,4.934,0,0,1-.06,1.114,15.02,15.02,0,0,1-.755,2.554l-.029.071c-.052.128-.1.259-.167.39a.25.25,0,0,0,.225.358A.245.245,0,0,0,40,73.6a9.976,9.976,0,0,1,3.26-.8.249.249,0,0,0,.179-.093.253.253,0,0,0,.053-.195c-.564-3.653.745-7.711,1.943-10.471a.316.316,0,0,1,.459-.178.518.518,0,0,1,.291.682C45.131,64.978,43.946,68.56,44.3,71.817Z"/><path d="M64.6,53.544c-.177.027-.349-.12-.434-.379a.252.252,0,0,0-.077-.113.451.451,0,0,1-.15-.2,4.116,4.116,0,0,0-.95-1.436.242.242,0,0,0-.2-.074.26.26,0,0,0-.132.05,1.353,1.353,0,0,1-.18.037.393.393,0,0,0-.126.055c-.065.044-.115.077-.156.1a.251.251,0,0,0-.122.258,20.209,20.209,0,0,1,.248,2.317c0,.1.013.211.022.329.017.236.038.5.034.764a.251.251,0,0,0,.25.255A.266.266,0,0,0,62.7,55.5c.227-.075.452-.159.676-.244a6.323,6.323,0,0,1,1.589-.449c.16-.013,3.93-.318,4.678-1.562a.917.917,0,0,0,.051-.869.52.52,0,0,1-.013-.363.249.249,0,0,0,.008-.105c-.015-.121-.029-.249-.043-.38l-.033-.308a.251.251,0,0,0-.2-.217.255.255,0,0,0-.267.127.522.522,0,0,1-.294.255.48.48,0,0,1-.562-.345,3.946,3.946,0,0,0-1.054-1.373.25.25,0,0,0-.417.186.38.38,0,0,1-.034.155.252.252,0,0,0,.02.242c.109.164.216.33.322.494l.25.385a.345.345,0,0,1,.046.361.515.515,0,0,1-.42.258.447.447,0,0,1-.412-.214l-.095-.149c-.759-1.2-1.629-2.384-2.3-2.073a.25.25,0,0,0-.131.311c.433,1.217.914,3.134.921,3.134C64.992,53.256,64.792,53.513,64.6,53.544Z"/><path d="M112.3,109.071a6.534,6.534,0,0,1,1.692-.617c.169-.027.413-.047.671-.067a.25.25,0,0,0,.095-.471,3.057,3.057,0,0,1-1.514-1.455.251.251,0,0,0-.308-.13c-.834.286-1.645.592-2.345.884a21.95,21.95,0,0,1-5.537,1.484c-2.207.3-4.463.543-6.645.781-3.761.413-7.65.839-11.445,1.525a13.177,13.177,0,0,1-2.776.079,10.312,10.312,0,0,0-3.717.293,23.013,23.013,0,0,1-4.629.9c-.825.1-1.679.208-2.519.361a35.879,35.879,0,0,1-6.162.715,18.726,18.726,0,0,0-4.493.743c-.877.222-1.784.45-2.712.593a.251.251,0,0,0-.21.212,2.115,2.115,0,0,1-.85,1.547c-.7.484-3.041,1.5-4.38,1.258a.248.248,0,0,0-.272.144,1.581,1.581,0,0,1-1.5,1,1.84,1.84,0,0,1-.78-.137.25.25,0,0,0-.269.036,8.414,8.414,0,0,1-1,.739.25.25,0,0,0,.194.455,17.657,17.657,0,0,1,5.365.013c.962.094,1.87.183,2.615.183a96.344,96.344,0,0,0,10.528-.469h0a.251.251,0,0,0,.221-.276.254.254,0,0,0-.276-.222h0c-1.431.151-3.707-1.642-4.429-2.9a.451.451,0,0,1-.019-.428,2.581,2.581,0,0,1,2.636-.927,13.741,13.741,0,0,1,2.221.71,15.987,15.987,0,0,0,2.07.685,16.524,16.524,0,0,0,2.562.326c.586.044,1.192.089,1.784.18.861.135,1.72.276,2.58.416,1.81.3,3.681.6,5.49.846a2.3,2.3,0,0,0,1.94.015,1.009,1.009,0,0,0,.407-.827.247.247,0,0,0-.184-.254l-.233-.063c-.445-.12-.913-.246-1.35-.382a5.6,5.6,0,0,1-1.5-.823c-.241-.166-.483-.331-.736-.48-.351-.2-.379-.32-.379-.321a.271.271,0,0,0-.255-.223c-1.872.049-3.942.028-3.966.028-.2,0-.273-.268-.273-.448a.625.625,0,0,1,.089-.341.206.206,0,0,1,.184-.107l1.093,0a40.186,40.186,0,0,0,8.5-.568,10.252,10.252,0,0,1,3.963.489,18.027,18.027,0,0,0,2.028.423,24.114,24.114,0,0,1,4.592,1.122l.17.054c2.2.693,5.083-.023,6.608-.509a.251.251,0,0,0,.047-.456c-.419-.235-.837-.511-1.241-.777a10.69,10.69,0,0,0-2.8-1.466.414.414,0,0,1-.311-.309.517.517,0,0,1,.131-.481.39.39,0,0,1,.426-.05.246.246,0,0,0,.2.009.411.411,0,0,1,.238-.023,8.758,8.758,0,0,0,6.141-.763,12.764,12.764,0,0,1,2.775-.829A7.437,7.437,0,0,0,112.3,109.071Z"/><path d="M53.292,111.267a.241.241,0,0,0-.211-.076c-.583.069-1.16.132-1.764.181a.25.25,0,0,0-.089.474A12.079,12.079,0,0,1,52,113.828a11.736,11.736,0,0,1,.25,2.8c0,.105-.006.206-.012.3a1,1,0,0,0,.168.812.784.784,0,0,0,.572.194c.032,0,.063,0,.092,0,.3-.013.464-.477.493-1.425a11.474,11.474,0,0,1-.075-1.824,10.785,10.785,0,0,0-.121-2.164,2.792,2.792,0,0,1-.014-1.034A.251.251,0,0,0,53.292,111.267Z"/><path d="M30.7,119.636c-1.709-.116-5.024-.119-5.057-.119a.251.251,0,0,0-.242.185c-.261.979-.626,1.54-1.113,1.714a.25.25,0,0,0,.169.471h0a7.023,7.023,0,0,1,3.716.269,11.276,11.276,0,0,0,2.53.423,52.161,52.161,0,0,0,9.776-1.266c.6-.117,1.2-.233,1.8-.344.51-.1,1.019-.18,1.526-.264a15.079,15.079,0,0,0,6.379-2.058.25.25,0,0,0-.236-.438,19.943,19.943,0,0,1-4.081,1.023,26.99,26.99,0,0,0-3.312.736c-2.48.786-8.468.37-8.545.365-.2,0-.274-.268-.274-.447a.638.638,0,0,1,.089-.342.208.208,0,0,1,.185-.106c.9,0,1.756.02,2.587.04a36.7,36.7,0,0,0,5.76-.161.25.25,0,0,0-.034-.5H35.4c-.082,0-.274-.331-.274-.972a2.225,2.225,0,0,1,.115-.751c.055-.145.122-.221.159-.221,1.28,0,2.448.039,3.577.076a46.282,46.282,0,0,0,5.518-.034,50.259,50.259,0,0,0,5.708-.965l.641-.133a.453.453,0,0,1,.167,0,.25.25,0,0,0,.3-.27c-.029-.292-.065-.578-.115-.857a.245.245,0,0,0-.1-.162.258.258,0,0,0-.188-.04.372.372,0,0,1-.159,0,22.21,22.21,0,0,0-8.122.13c-.92.129-1.871.262-2.824.353a.334.334,0,0,1-.392-.332.5.5,0,0,1,.439-.565c1.746-.168,3.527-.437,5.249-.695l.871-.131a12.193,12.193,0,0,1,4.534.27.247.247,0,0,0,.244-.086.251.251,0,0,0,.038-.256L50.7,113c-.05-.127-.1-.255-.168-.392-.087-.174-.174-.347-.247-.515a.253.253,0,0,0-.139-.132,19.2,19.2,0,0,0-7.308-1.636,8.517,8.517,0,0,0-4.906.993,1.948,1.948,0,0,1-1.245.064,7.5,7.5,0,0,1-1.055-.286,3.285,3.285,0,0,0-2.532-.127,1.858,1.858,0,0,1-1.019.019,4.367,4.367,0,0,0-.588-.063c-.818-.017-2.19-.046-2.786.618a1.1,1.1,0,0,0-.278.807.2.2,0,0,0-.032.088.266.266,0,0,0,.207.272,16.661,16.661,0,0,0,4,.327c.2,0,.274.268.274.448s-.073.449-.274.449a20.092,20.092,0,0,1-4.033-.289.251.251,0,0,0-.275.136,1.6,1.6,0,0,0-.083.214c-.011.034-.028.073-.043.071a.2.2,0,0,0-.06,0l-.1.011c-2.17.2-2.573.524-2.68.811a.473.473,0,0,0,.134.511.247.247,0,0,0,.179.077c1.02.008,2.091.069,3.125.129.911.053,1.77.1,2.44.1.2,0,.274.268.274.448s-.073.448-.274.448c-.694,0-1.569-.049-2.5-.1s-1.9-.107-2.834-.121h0a.249.249,0,0,0-.241.185,2.254,2.254,0,0,0,.008.869,3.235,3.235,0,0,1,.035.9.247.247,0,0,0,.058.2.25.25,0,0,0,.189.087c1.277,0,3.16.012,4.773.118a.451.451,0,0,1,.42.507A.384.384,0,0,1,30.7,119.636Zm4.7-6.6c.2,0,.273.268.273.448a.629.629,0,0,1-.089.342.208.208,0,0,1-.184.107c-.524,0-.8-.226-.8-.449S34.877,113.036,35.4,113.036Z"/><path d="M47.924,120.771a32.495,32.495,0,0,1-4.891,1.016c-.485.075-.971.151-1.456.233-.282.048-.584.105-.893.168a.251.251,0,0,0,.046.5h.2c.562,0,1.121-.03,1.662-.059.371-.02.731-.04,1.071-.047a9.646,9.646,0,0,0,4.45-1.348.25.25,0,0,0-.192-.46Z"/><path d="M117.986,104.392a3.422,3.422,0,0,0,.569-.21c.338-.162.519-.356.556-.594.06-.391-.287-.716-.69-1.092a4.517,4.517,0,0,1-.66-.711.251.251,0,0,0-.3-.094,12.706,12.706,0,0,1-2.708.6c-.611.091-1.244.185-1.863.337-.686.168-1.39.371-2.07.568a32.845,32.845,0,0,1-3.268.825c-2.638.465-5.3,1-7.868,1.514s-5.212,1.045-7.838,1.509c-3.777.669-7.643,1.132-11.381,1.58-1.948.233-3.962.475-5.942.743-1.085.147-2.185.282-3.293.419a79.408,79.408,0,0,0-11.581,2.01.249.249,0,0,0-.176.3,12.844,12.844,0,0,1,.26,1.458.254.254,0,0,0,.1.175.26.26,0,0,0,.2.044c.764-.147,1.522-.361,2.255-.568a15.063,15.063,0,0,1,3.913-.74,51.706,51.706,0,0,0,8.052-.883c.739-.123,1.523-.305,2.353-.5a22.194,22.194,0,0,1,4.388-.722c.349-.006.7-.009,1.054-.013a32.78,32.78,0,0,0,5.492-.361c2.668-.481,5.459-.718,8.158-.948a71.513,71.513,0,0,0,10.136-1.351,39.626,39.626,0,0,0,4.687-1.518c.706-.261,1.411-.523,2.122-.764a14.191,14.191,0,0,1,2.786-.548A16.171,16.171,0,0,0,117.986,104.392Z"/><path d="M32.556,61.626a14.829,14.829,0,0,0-2.1,7.179l-.005.3a13.476,13.476,0,0,1-.465,4c-1.608,4.959-1.913,10.158-2.209,15.185a92.25,92.25,0,0,1-.954,10c-.676,4.016-3.871,6.5-9.767,7.578a.252.252,0,0,0-.192.166c0,.011-.019.089-.021.1-.059.117-.135.247-.215.386-.308.529-.692,1.188-.492,1.733a1.054,1.054,0,0,0,.7.609,1.615,1.615,0,0,1,.978.786c.268.986-.7,2.033-1.779,2.634a.25.25,0,0,0,.031.451,9.725,9.725,0,0,0,2.474.428l.326.028a5.739,5.739,0,0,1,2.118.452,1.7,1.7,0,0,1,.817,1.065.411.411,0,0,0,.185.287.977.977,0,0,0,.537.116,9.635,9.635,0,0,0,2.158-.4.248.248,0,0,0,.162-.134,2.872,2.872,0,0,1,2.207-1.311c.156-.013.285-.02.408-.027.084,0,.15-.085.192-.158a.323.323,0,0,0,0-.272,2.644,2.644,0,0,1,0-1.546c.159-.727,1.681-1.031,2.267-1.148a5.907,5.907,0,0,1,1.642-.019c.266.023.536.045.814.051a1.957,1.957,0,0,0,.9-.222,1.554,1.554,0,0,1,.616-.175,2.9,2.9,0,0,1,1.184.352,4.27,4.27,0,0,0,1.057.37A4.024,4.024,0,0,0,38.7,110a.254.254,0,0,0,.128-.136c.136-.342.285-.686.435-1.033a10.484,10.484,0,0,0,1.1-3.721c.047-1.476.031-2.87.016-4.218-.008-.684-.016-1.368-.016-2.065,0-1.047.9-1.047.9,0,0,.591.016,1.215.033,1.858a33.725,33.725,0,0,1-.122,5.093,8.108,8.108,0,0,1-.757,2.4c-.113.258-.229.524-.344.81a.25.25,0,0,0,.271.341c3.347-.534,6.632.467,9.686,1.627a.25.25,0,0,0,.285-.078,1.347,1.347,0,0,1,1.026-.4,15.913,15.913,0,0,0,2.363-.232l.465-.07c.029-.007.051-.017.048-.022.3-.043.617-.114.934-.187a3.582,3.582,0,0,1,3.916.91.244.244,0,0,0,.265.086c1.182-.336,2.46-.635,3.8-.888a.25.25,0,0,0,.142-.409,42.159,42.159,0,0,1-7.3-11.168.482.482,0,0,1,.056-.5.514.514,0,0,1,.44-.224.307.307,0,0,1,.246.214,42.373,42.373,0,0,0,7.777,11.717.241.241,0,0,0,.227.08c2.085-.341,4.215-.6,6.275-.858.764-.094,1.526-.188,2.281-.285,1.749-.226,3.576-.4,5.343-.56,2.459-.229,5-.465,7.46-.858a.251.251,0,0,0,.065-.475l-.2-.091c-.259-.119-.525-.242-.814-.359a4.56,4.56,0,0,1-1.973-1.32.516.516,0,0,1,.106-.731.314.314,0,0,1,.485.056,4.458,4.458,0,0,0,2.005,1.3c.183.077.35.163.512.246a3.422,3.422,0,0,0,1.358.457.444.444,0,0,1,.407.357.252.252,0,0,0,.295.182l.52-.109c.565-.118,1.149-.239,1.714-.4a23.777,23.777,0,0,1,3.813-.614,24.531,24.531,0,0,0,3.864-.621.25.25,0,0,0-.074-.491c-1.117.041-2.271.083-3.405.083a24.623,24.623,0,0,1-5.661-.537l-.622,0c-2.246.013-4.788.033-6.185-1.849a3.629,3.629,0,0,1-.447-1.871,4.911,4.911,0,0,0-.347-1.784,21.368,21.368,0,0,1-1.326-3.272,24.538,24.538,0,0,1-.938-5.252.251.251,0,0,0-.482-.072,10.074,10.074,0,0,0-.84,4.835,20.849,20.849,0,0,0,3.417,8.681.274.274,0,0,0,.065.062c.029.019.057.043.118.09a.455.455,0,0,1,.2.361.273.273,0,0,0,.017.075.56.56,0,0,1-.25.659.3.3,0,0,1-.416-.088c-.055-.07-.109-.128-.164-.188s-.091-.1-.138-.155a.245.245,0,0,0-.06-.056c-.506-.326-1.021-.619-1.52-.9-1.891-1.074-3.525-2-4.069-4.335-.066-.277-.144-.572-.226-.878-.392-1.47-.879-3.3-.349-4.693a.251.251,0,0,0-.052-.261c-2.306-2.434-3.866-9.094-3.875-9.1,0-.2.268-.274.448-.274s.448.073.448.274a14.5,14.5,0,0,0,3.014,7.926.244.244,0,0,0,.252.077.249.249,0,0,0,.181-.19c.77-3.68-.221-9.6-2.922-12.547-1.9-2.076-4.43-2.332-6.874-2.58a17.875,17.875,0,0,1-4.09-.74,15.01,15.01,0,0,1-2.06-.967A11.034,11.034,0,0,0,55.935,73.9a21.86,21.86,0,0,0-5.7-.146c-.616.039-1.239.078-1.877.1l-.617.019c-1.94.054-3.616.1-5.2,1.465a11.751,11.751,0,0,0-4.246,7.7.526.526,0,0,1-.606.44.306.306,0,0,1-.294-.376,12.106,12.106,0,0,1,2.992-6.933c.15-.161.3-.329.453-.5a17.347,17.347,0,0,1,1.255-1.3.25.25,0,0,0-.227-.429c-2.237.554-4.855,2.128-5.661,4.4a.24.24,0,0,0-.015.084.344.344,0,0,1-.01.106,32.539,32.539,0,0,0-1.03,9.5c0,.4.031.847.063,1.326.106,1.57.239,3.525-.672,4.576a18.988,18.988,0,0,0-3.99,6.06,6.492,6.492,0,0,1-1.2,2.025,14.151,14.151,0,0,1-3.538,2.773c-.267.156-.583.313-.915.479a7.124,7.124,0,0,0-2.6,1.8.461.461,0,0,1-.433.2.529.529,0,0,1-.423-.271.328.328,0,0,1,.055-.338,8.646,8.646,0,0,1,3.336-2.4,10.839,10.839,0,0,0,3.172-2.108,16.1,16.1,0,0,0,2.36-3.733,17.568,17.568,0,0,1,2.114-3.457c1.825-2.159,1.794-4.46,1.761-6.9a25.681,25.681,0,0,1,.064-2.764c.044-.472.083-.939.121-1.4a26.432,26.432,0,0,1,.812-5.345.248.248,0,0,0,.007-.105.455.455,0,0,1,.019-.2,6.778,6.778,0,0,1,1.981-2.9.25.25,0,0,0,.057-.3.515.515,0,0,1-.029-.418.249.249,0,0,0,.014-.15,20.882,20.882,0,0,1-.3-4.444.449.449,0,0,1,.9,0,23.708,23.708,0,0,0,.156,3.562.25.25,0,0,0,.447.115,8.038,8.038,0,0,0,1.082-2.837l.023-.1a8.238,8.238,0,0,0,.161-1.654c.009-.278.016-.555.04-.832a.253.253,0,0,0-.072-.2.46.46,0,0,1-.032-.654,4.686,4.686,0,0,0,.841-2.766,5.638,5.638,0,0,1,.409-1.964.249.249,0,0,0,.027-.134,1.774,1.774,0,0,0-.5-1.077,2.667,2.667,0,0,1-.454-.729,4.745,4.745,0,0,1-.523-1.918c-.019-1.882.67-3.022,1.624-4.6l.085-.142a.371.371,0,0,1,.365-.215.532.532,0,0,1,.439.261.372.372,0,0,1-.025.395l-.19.315a17.37,17.37,0,0,0-.919,1.649.251.251,0,0,0,.223.355h.049c2.58,0,3.319-3.863,3.484-5.053.05-.363.069-.722.087-1.069a7.541,7.541,0,0,1,.2-1.6,3.779,3.779,0,0,1,.578-1.06c.122-.181.242-.357.34-.528a.372.372,0,0,1,.332-.213.547.547,0,0,1,.444.255.4.4,0,0,1-.011.418,10.669,10.669,0,0,0-1.082,3.443.25.25,0,0,0,.379.255,3.2,3.2,0,0,0,.546-.438.261.261,0,0,0,.054-.081.348.348,0,0,1,.15-.172.254.254,0,0,0,.078-.068,6.549,6.549,0,0,0,.924-2.29,8.157,8.157,0,0,1,.712-1.979.42.42,0,0,1,.494-.2.434.434,0,0,1,.337.421.244.244,0,0,0,.009.066.249.249,0,0,0,.408.161l.069-.055a1.62,1.62,0,0,0,.186-.163l.23-.216c.221-.208.444-.419.673-.612A.491.491,0,0,1,50.927,46a.249.249,0,0,0,.153-.309l-.059-.187a4.856,4.856,0,0,1-.307-1.59.388.388,0,0,1,.2-.359.536.536,0,0,1,.514.009.253.253,0,0,0,.158.035.972.972,0,0,1,.732.177.253.253,0,0,0,.256.022,3,3,0,0,1,.539-.171,1.936,1.936,0,0,0,1.1-.548l.059-.076a1.831,1.831,0,0,1,.838-.724,7.483,7.483,0,0,1,1.768-.353l.086-.01a.25.25,0,0,0,.092-.467,2.227,2.227,0,0,1-.346-.239,2.043,2.043,0,0,1-.685-1.741.25.25,0,0,0-.322-.24,19.784,19.784,0,0,0-4.08,1.959,18.135,18.135,0,0,1-4.406,2.046c-3.113.816-5.621,4.818-7.452,7.74l-.486.772c-.863,1.363-1.87,2.738-2.844,4.068A52.63,52.63,0,0,0,32.556,61.626Zm41.806,44.718a.524.524,0,0,1-.734.111,11.786,11.786,0,0,1-1.967-2.221c-.163-.218-.326-.436-.491-.648a.483.483,0,0,1-.066-.5.516.516,0,0,1,.367-.327.3.3,0,0,1,.289.146c.164.21.327.427.491.645a12.13,12.13,0,0,0,2.057,2.3A.316.316,0,0,1,74.362,106.344ZM62.63,80.607a.563.563,0,0,1,.361-.138.41.41,0,0,1,.132.021.343.343,0,0,1,.22.283h0c.16.8.3,1.588.447,2.373.7,3.848,1.363,7.482,3.69,10.816a15.332,15.332,0,0,0,2.963,2.946l.078.064a.25.25,0,0,0,.378-.313,16.155,16.155,0,0,1-1.018-2.2,85.611,85.611,0,0,1-2.531-8.893c-.3-1.208-.594-2.413-.91-3.608a.417.417,0,0,1,.329-.532.405.405,0,0,1,.535.291c.322,1.218.62,2.483.908,3.706a68.537,68.537,0,0,0,2.177,7.834c1.284,3.5,3.421,6.178,5.683,9.018l.232.292a.474.474,0,0,1,.065.1.391.391,0,0,0,.08.1.342.342,0,0,1,.134.336.524.524,0,0,1-.346.369.429.429,0,0,1-.444-.1,31.184,31.184,0,0,1-2.4-2.435A26.768,26.768,0,0,0,70.5,98.094l-.49-.393a14.064,14.064,0,0,1-3.317-3.309,16.658,16.658,0,0,1-2.917-6.764c-.307-1.762-.669-3.545-1.02-5.27l-.266-1.312A.442.442,0,0,1,62.63,80.607ZM56.9,86.832a.543.543,0,0,1,.4-.227.234.234,0,0,1,.038,0,.3.3,0,0,1,.241.211h0c.8,1.862,1.766,3.662,2.7,5.4.846,1.578,1.722,3.21,2.467,4.876,1.9,4.238,4.17,6.752,7.848,8.678a.35.35,0,0,1,.214.3.532.532,0,0,1-.247.446.415.415,0,0,1-.442.009,15.661,15.661,0,0,1-7.615-7.8c-.824-1.837-1.774-3.638-2.693-5.379-1.027-1.949-2.09-3.963-2.974-6.025A.482.482,0,0,1,56.9,86.832Zm-1.84,3.97a.53.53,0,0,1,.406.066.282.282,0,0,1,.139.193,21.38,21.38,0,0,1,.137,2.18c0,.2-.268.274-.448.274s-.448-.073-.448-.274v-.136a10.716,10.716,0,0,0-.094-1.764A.424.424,0,0,1,55.061,90.8Zm-2.936-9.125,0,0,.173-.522a.424.424,0,0,1,.328-.3.547.547,0,0,1,.107-.011.52.52,0,0,1,.382.158.351.351,0,0,1,.058.363c-.064.177-.121.355-.176.528a.464.464,0,0,1-.615.283.437.437,0,0,1-.242-.182A.367.367,0,0,1,52.125,81.677Zm.2,3.167a.412.412,0,0,1,.448.426h0c.016,9.1,2.457,17.032,7.061,22.931a.483.483,0,0,1,.067.5.518.518,0,0,1-.367.326.3.3,0,0,1-.289-.146c-4.8-6.152-7.352-14.316-7.368-23.607A.413.413,0,0,1,52.328,84.844ZM41.7,95.685a.449.449,0,0,1-.9,0v-1.4a.449.449,0,0,1,.9,0Zm8.186,13.688a.317.317,0,0,1-.461-.177c-.4-.919-.7-1.8-1.019-2.735l-.146-.427a16.805,16.805,0,0,1-.507-2.1c-.092-.469-.185-.939-.3-1.409a.431.431,0,0,1,.34-.539.4.4,0,0,1,.523.292c.128.505.247,1,.364,1.5a27.67,27.67,0,0,0,1.5,4.921A.512.512,0,0,1,49.884,109.373ZM47.415,92.835a.553.553,0,0,1,.369-.145.431.431,0,0,1,.126.018.361.361,0,0,1,.252.291v0c.057.224.106.448.155.674s.1.439.151.655a3.249,3.249,0,0,1,.054.475,2.3,2.3,0,0,0,.17.874.424.424,0,0,1-.015.447.553.553,0,0,1-.447.246.348.348,0,0,1-.3-.218,2.1,2.1,0,0,1-.194-.806,4.168,4.168,0,0,0-.092-.581c-.048-.2-.094-.41-.14-.616-.067-.3-.135-.6-.209-.9A.41.41,0,0,1,47.415,92.835Zm-1.175-4.25a.449.449,0,0,1,.9,0v.586a.449.449,0,0,1-.9,0ZM45.357,95.1h0c.318,2.767.779,5.55,1.225,8.242.292,1.76.593,3.58.85,5.369a.486.486,0,0,1-.189.465.527.527,0,0,1-.485.1.3.3,0,0,1-.178-.267c-.266-1.864-.578-3.75-.879-5.574-.452-2.741-.921-5.575-1.243-8.393a.318.318,0,0,1,.312-.384.528.528,0,0,1,.058,0A.5.5,0,0,1,45.357,95.1Zm-1.33-5.347c0-.523.226-.8.449-.8s.447.274.447.8v2.094c0,.2-.268.274-.447.274s-.449-.073-.449-.274Zm-8.844,11.134h0A16.087,16.087,0,0,0,37.73,92.6a11.1,11.1,0,0,1,.942-3.3,19.568,19.568,0,0,0,.718-2c.259-.92.457-1.794.647-2.64A17.78,17.78,0,0,1,42.4,78.307a.421.421,0,0,1,.366-.206h.027a.536.536,0,0,1,.437.269.351.351,0,0,1-.04.367,19.181,19.181,0,0,0-2.509,6.984A34.326,34.326,0,0,1,39.618,89.8a35.111,35.111,0,0,0-1.095,4.3,19.325,19.325,0,0,1-2.555,7.212.433.433,0,0,1-.4.207.526.526,0,0,1-.427-.266A.344.344,0,0,1,35.183,100.885Zm-2.714.06a.373.373,0,0,0,.124-.277.466.466,0,0,1,.515-.433.44.44,0,0,1,.283.111.366.366,0,0,1,.1.3,1.385,1.385,0,0,1-.4.951.383.383,0,0,1-.575.012A.457.457,0,0,1,32.469,100.945Zm-8.251,9.746h0a5.823,5.823,0,0,0,1.565-.986c.131-.1.259-.2.386-.3.159-.118.327-.24.5-.364a12.8,12.8,0,0,0,1.539-1.236,14.053,14.053,0,0,0,2.453-3.454.358.358,0,0,1,.31-.219h.016a.53.53,0,0,1,.424.244.421.421,0,0,1,.008.443,11.773,11.773,0,0,1-3.037,4c-.314.241-.631.5-.955.77a10.638,10.638,0,0,1-3,1.978.355.355,0,0,1-.484-.238A.481.481,0,0,1,24.218,110.691Zm7.987-24.84c.017,1.375.034,2.8,0,4.18-.048,1.954-.176,3.243-1.549,4.663a.4.4,0,0,1-.6-.005.43.43,0,0,1-.032-.632c1.56-1.608,1.469-4.244,1.388-6.569-.016-.471-.032-.924-.032-1.346,0-.67-.01-1.342-.02-2.015a50.977,50.977,0,0,1,.1-5.258.452.452,0,0,1,.27-.391.529.529,0,0,1,.5.022.329.329,0,0,1,.125.325A69.025,69.025,0,0,0,32.205,85.851Zm2.924-17.829a47.586,47.586,0,0,0-.592,7.768c0,1.048-.9,1.046-.9,0a35.608,35.608,0,0,1,.636-8.092.324.324,0,0,1,.217-.267.383.383,0,0,1,.118-.017.58.58,0,0,1,.381.154.449.449,0,0,1,.136.452Zm2.412-10.5a.236.236,0,0,1,.038,0,.537.537,0,0,1,.4.222.488.488,0,0,1,.062.5c-.957,2.249-1.873,5.527-.807,8.375a.329.329,0,0,1-.033.345.529.529,0,0,1-.481.155.444.444,0,0,1-.358-.3,8.4,8.4,0,0,1-.5-3.153.249.249,0,0,0-.188-.247.245.245,0,0,0-.283.127,32.593,32.593,0,0,0-3.9,11.7.511.511,0,0,1-.585.442.32.32,0,0,1-.314-.388c.559-5.212,2.476-9.5,5.387-14.738l0,0a.387.387,0,0,1,.258-.209.248.248,0,0,0,.188-.175,20.112,20.112,0,0,1,.876-2.429A.309.309,0,0,1,37.541,57.523Z"/><path d="M54.466,115.922a.721.721,0,0,0,.615.743,1.717,1.717,0,0,0,.381.039c1.129,0,2.98-.815,3.256-1.395a3.91,3.91,0,0,0-.076-2.373,6.158,6.158,0,0,1-.186-1.086c-.029-.883-1.493-1.177-1.884-1.177a6.192,6.192,0,0,0-1.331.187c-.2.044-.406.089-.614.123a.247.247,0,0,0-.139.072.2.2,0,0,0-.057.087c-.41.5-.237,1.3-.084,2a4.6,4.6,0,0,1,.132.8c.011.468,0,.934-.005,1.4Z"/></g></svg>