<?xml version="1.0" encoding="utf-8"?>

<!-- Uploaded to: SVG Repo, www.svgrepo.com, Generator: SVG Repo Mixer Tools -->
<svg version="1.1" xmlns="http://www.w3.org/2000/svg" xmlns:xlink="http://www.w3.org/1999/xlink" 
	 width="800px" height="800px" viewBox="0 0 63.846 63.692" enable-background="new 0 0 63.846 63.692" xml:space="preserve">
<g id="background">
</g>
<g id="_x31_">
</g>
<g id="_x32__1_">
</g>
<g id="_x33__1_">
</g>
<g id="_x34__1_">
</g>
<g id="_x35__1_">
	<g>
		<path fill="#20293B" d="M60.658,2.5c0.38,0,0.688,0.309,0.688,0.688v57.315c0,0.38-0.309,0.688-0.688,0.688H3.188
			c-0.38,0-0.688-0.309-0.688-0.688V3.188C2.5,2.809,2.809,2.5,3.188,2.5H60.658 M60.658,0H3.188C1.428,0,0,1.428,0,3.188v57.315
			c0,1.761,1.428,3.188,3.188,3.188h57.469c1.761,0,3.188-1.428,3.188-3.188V3.188C63.846,1.428,62.419,0,60.658,0L60.658,0z"/>
	</g>
	<path fill="none" stroke="#20293B" stroke-width="1.5" stroke-linejoin="round" stroke-miterlimit="10" d="M10.777,1.715v14.642
		c0,1.497,1.217,2.711,2.718,2.711h36.856c1.501,0,2.718-1.214,2.718-2.711V1.715H10.777z"/>
	<path fill="none" stroke="#20293B" stroke-width="1.5" stroke-linejoin="round" stroke-miterlimit="10" d="M56.983,61.576H6.863
		V38.312c0-4.402,3.569-7.971,7.971-7.971h34.177c4.402,0,7.971,3.569,7.971,7.971V61.576z"/>
	<path fill="#20293B" d="M18.112,1.715v17.353h28.919V1.715H18.112z M43.553,16.484c0,0.879-0.715,1.592-1.596,1.592h-3.766
		c-0.882,0-1.596-0.713-1.596-1.592V3.745h6.958V16.484z"/>
	
		<line fill="none" stroke="#20293B" stroke-width="1.5" stroke-linejoin="round" stroke-miterlimit="10" x1="15.323" y1="40.531" x2="48.523" y2="40.531"/>
	
		<line fill="none" stroke="#20293B" stroke-width="1.5" stroke-linejoin="round" stroke-miterlimit="10" x1="15.323" y1="46.9" x2="48.523" y2="46.9"/>
</g>
<g id="_x36__1_">
</g>
<g id="_x37__1_">
</g>
<g id="_x38__1_">
</g>
<g id="_x39__1_">
</g>
<g id="_x31_0_1_">
</g>
<g id="_x31_1_1_">
</g>
<g id="_x31_2_1_">
</g>
<g id="_x31_3">
</g>
</svg>